<svg width="24" height="24" viewBox="0 0 24 24" fill="none" xmlns="http://www.w3.org/2000/svg">
    <path d="M4.19651 18.4995C5.21956 18.4976 6.1064 17.7989 6.33502 16.8144H17.6649C17.9135 17.8892 18.9404 18.6095 20.0501 18.4863C21.1608 18.3622 22 17.436 22 16.333C22 15.23 21.1608 14.3038 20.0501 14.1796C18.9403 14.0565 17.9135 14.7768 17.6649 15.8515H10.3157C10.4062 15.7208 10.4824 15.5807 10.5415 15.4331L13.1096 8.91577C13.2896 8.45219 13.7421 8.14659 14.246 8.14847H17.6649C17.9135 9.22324 18.9404 9.94353 20.0501 9.82036C21.1608 9.69623 22 8.77001 22 7.66702C22 6.56403 21.1608 5.63781 20.0501 5.51369C18.9403 5.39051 17.9135 6.1108 17.6649 7.18558H14.246C13.3391 7.18182 12.5247 7.7319 12.1999 8.56691L9.63279 15.0842C9.45276 15.5488 9.00028 15.8534 8.49637 15.8515H6.33499C6.14733 15.04 5.50531 14.4063 4.68324 14.221C3.86118 14.0358 3.00387 14.332 2.47899 14.9827C1.95319 15.6334 1.85125 16.5239 2.21799 17.2743C2.58378 18.0237 3.35344 18.5004 4.19648 18.4995H4.19651ZM19.8034 15.1294C20.2968 15.1294 20.7407 15.4228 20.9303 15.8722C21.1189 16.3217 21.0141 16.8398 20.6655 17.184C20.3168 17.5281 19.792 17.6316 19.3366 17.4454C18.8813 17.2582 18.5841 16.82 18.5841 16.333C18.5851 15.6682 19.1299 15.1303 19.8034 15.1293L19.8034 15.1294ZM19.8034 6.46336C20.2968 6.46336 20.7407 6.75676 20.9303 7.20621C21.1189 7.65568 21.0141 8.17379 20.6655 8.51795C20.3168 8.86211 19.792 8.96555 19.3366 8.77935C18.8813 8.59223 18.5841 8.15403 18.5841 7.66695C18.5851 7.00215 19.1299 6.46428 19.8034 6.46334L19.8034 6.46336ZM4.19651 15.1294C4.68993 15.1294 5.13385 15.4228 5.3234 15.8722C5.51201 16.3217 5.40722 16.8398 5.05859 17.184C4.70995 17.5281 4.1851 17.6316 3.72977 17.4454C3.27444 17.2582 2.97725 16.82 2.97725 16.333C2.9782 15.6682 3.52307 15.1303 4.19653 15.1293L4.19651 15.1294Z"
          fill="white" stroke="white" stroke-width="0.75"/>
</svg>
