<svg width="24" height="24" viewBox="0 0 24 24" fill="none" xmlns="http://www.w3.org/2000/svg">
    <path fill-rule="evenodd" clip-rule="evenodd"
          d="M5 16H8V19H10V14H5V16ZM8 8H5V10H10V5H8V8ZM14 19H16V16H19V14H14V19ZM16 8V5H14V10H19V8H16Z" fill="white"/>
    <mask id="mask0" mask-type="alpha" maskUnits="userSpaceOnUse" x="5" y="5" width="14" height="14">
        <path fill-rule="evenodd" clip-rule="evenodd"
              d="M5 16H8V19H10V14H5V16ZM8 8H5V10H10V5H8V8ZM14 19H16V16H19V14H14V19ZM16 8V5H14V10H19V8H16Z"
              fill="white"/>
    </mask>
    <g mask="url(#mask0)">
    </g>
</svg>
