<svg width="24" height="24" viewBox="0 0 24 24" fill="none" xmlns="http://www.w3.org/2000/svg">
<g clip-path="url(#clip0)">
<path d="M22.6501 14.3892L12.0001 22.1292L1.35014 14.3892C1.20737 14.2842 1.10146 14.1368 1.04758 13.9679C0.993694 13.7991 0.994592 13.6175 1.05014 13.4492L2.27014 9.66923L4.71014 2.15923C4.73381 2.09804 4.77148 2.04324 4.82014 1.99923C4.89938 1.92685 5.00282 1.88672 5.11014 1.88672C5.21746 1.88672 5.32091 1.92685 5.40014 1.99923C5.45153 2.04889 5.48939 2.11085 5.51014 2.17923L7.95014 9.66923H16.0501L18.4901 2.15923C18.5138 2.09804 18.5515 2.04324 18.6001 1.99923C18.6794 1.92685 18.7828 1.88672 18.8901 1.88672C18.9975 1.88672 19.1009 1.92685 19.1801 1.99923C19.2315 2.04889 19.2694 2.11085 19.2901 2.17923L21.7301 9.68923L23.0001 13.4492C23.0507 13.6227 23.0439 13.8079 22.9809 13.9772C22.9178 14.1465 22.8018 14.291 22.6501 14.3892V14.3892Z" stroke="white" stroke-width="2" stroke-linecap="round" stroke-linejoin="round"/>
</g>
<defs>
<clipPath id="clip0">
<rect width="24" height="24" fill="white"/>
</clipPath>
</defs>
</svg>
