<svg width="24" height="24" viewBox="0 0 24 24" fill="none" xmlns="http://www.w3.org/2000/svg">
<path d="M23 3.00029C22.0424 3.67577 20.9821 4.1924 19.86 4.53029C19.2577 3.8378 18.4573 3.34698 17.567 3.12422C16.6767 2.90145 15.7395 2.95749 14.8821 3.28474C14.0247 3.612 13.2884 4.19469 12.773 4.95401C12.2575 5.71332 11.9877 6.61263 12 7.53029V8.53029C10.2426 8.57586 8.50127 8.1861 6.93101 7.39574C5.36074 6.60537 4.01032 5.43893 3 4.00029C3 4.00029 -1 13.0003 8 17.0003C5.94053 18.3983 3.48716 19.0992 1 19.0003C10 24.0003 21 19.0003 21 7.50029C20.9991 7.22174 20.9723 6.94388 20.92 6.67029C21.9406 5.66378 22.6608 4.393 23 3.00029V3.00029Z" stroke="white" stroke-width="2" stroke-linecap="round" stroke-linejoin="round"/>
</svg>
