<svg width="24" height="24" viewBox="0 0 24 24" fill="none" xmlns="http://www.w3.org/2000/svg">
    <g clip-path="url(#clip0)">
        <path d="M22.5406 6.42C22.4218 5.94541 22.1799 5.51057 21.8392 5.15941C21.4986 4.80824 21.0713 4.55318 20.6006 4.42C18.8806 4 12.0006 4 12.0006 4C12.0006 4 5.12057 4 3.40057 4.46C2.92982 4.59318 2.50255 4.84824 2.16192 5.19941C1.82129 5.55057 1.57936 5.98541 1.46057 6.46C1.14579 8.20556 0.991808 9.97631 1.00057 11.75C0.989351 13.537 1.14334 15.3213 1.46057 17.08C1.59153 17.5398 1.83888 17.9581 2.17872 18.2945C2.51855 18.6308 2.93939 18.8738 3.40057 19C5.12057 19.46 12.0006 19.46 12.0006 19.46C12.0006 19.46 18.8806 19.46 20.6006 19C21.0713 18.8668 21.4986 18.6118 21.8392 18.2606C22.1799 17.9094 22.4218 17.4746 22.5406 17C22.8529 15.2676 23.0069 13.5103 23.0006 11.75C23.0118 9.96295 22.8578 8.1787 22.5406 6.42V6.42Z"
              stroke="white" stroke-width="2" stroke-linecap="round" stroke-linejoin="round"/>
        <path d="M9.75 15.0205L15.5 11.7505L9.75 8.48047V15.0205Z" stroke="white" stroke-width="2"
              stroke-linecap="round" stroke-linejoin="round"/>
    </g>
    <defs>
        <clipPath id="clip0">
            <rect width="24" height="24" fill="white"/>
        </clipPath>
    </defs>
</svg>
